# xmcd
#
# Track frame offsets:
#	150
#	14614
#	24276
#	35273
#	49336
#	59656
#	75189
#	88964
#	101527
#	113957
#
# Disc length: 1765 seconds
#
# Revision: 1
# Processed by: cddbd v1.5.2PL0 Copyright (c) Steve Scherf et al.
# Submitted via: audiograbber 1.83.01
#
DISCID=7906e30a
DTITLE=Rúnar Júlíusson - Nostalgía
DYEAR=2005
DGENRE=Dream
TTITLE0=Söngur villiandarinnar
TTITLE1=Ágústnótt
TTITLE2=Ástarvíma hestamannsins
TTITLE3=Æskuminning
TTITLE4=Hreðarvatnsvalsinn
TTITLE5=Það sem ekki má
TTITLE6=Draumur fangans
TTITLE7=Vökudraumur
TTITLE8=Heimþrá
TTITLE9=Bænastund í miðjum bænum
EXTD=
EXTT0=
EXTT1=
EXTT2=
EXTT3=
EXTT4=
EXTT5=
EXTT6=
EXTT7=
EXTT8=
EXTT9=
PLAYORDER=
